<svg xmlns="http://www.w3.org/2000/svg" x="0px" y="0px" width="96" height="96" viewBox="0 0 64 64" style="fill: #121212">
    <path d="M 32.462891 1 C 32.350891 1 32.236047 1.0092969 32.123047 1.0292969 C 31.339047 1.1632969 30.727297 1.743375 30.529297 2.484375 L 20.769531 27.535156 C 20.723531 27.648156 20.660078 27.822922 20.580078 28.044922 C 18.936078 32.639922 16.886328 34.96875 14.486328 34.96875 C 13.531328 34.96875 12.450437 34.619688 11.273438 33.929688 C 10.959437 33.745688 10.611672 33.654297 10.263672 33.654297 C 9.8176719 33.654297 9.3737656 33.803703 9.0097656 34.095703 C 8.3627656 34.615703 8.104375 35.480531 8.359375 36.269531 C 8.426375 36.476531 8.4963125 36.691109 8.5703125 36.912109 C 9.3613125 39.278109 10.258906 41.959391 8.6289062 45.275391 C 8.3019063 45.940391 8.3696875 46.732031 8.8046875 47.332031 C 9.1836875 47.855031 9.787875 48.15625 10.421875 48.15625 C 10.515875 48.15625 10.610078 48.149719 10.705078 48.136719 L 10.855469 48.115234 C 11.216469 48.063234 11.528406 48.017578 11.816406 48.017578 C 12.248406 48.017578 13.258281 48.017109 15.613281 50.537109 C 15.728281 50.660109 15.855187 50.767469 15.992188 50.855469 C 15.979188 51.436469 16.220203 51.998625 16.658203 52.390625 C 20.115203 55.488625 25.692828 57.290078 28.548828 57.580078 C 28.616828 57.587078 28.684953 57.589844 28.751953 57.589844 C 29.375953 57.589844 29.967656 57.298922 30.347656 56.794922 C 30.768656 56.235922 30.867422 55.496656 30.607422 54.847656 C 30.548422 54.700656 30.502172 54.592516 30.451172 54.478516 C 30.414172 54.395516 30.375266 54.309734 30.322266 54.177734 C 30.121266 53.675734 29.726563 53.275312 29.226562 53.070312 C 24.437563 51.101312 22.96725 48.385484 22.90625 48.271484 C 22.817715 48.090902 22.696885 47.936487 22.5625 47.794922 L 38.732422 37.839844 C 38.73729 38.052438 38.773821 38.265832 38.849609 38.474609 C 38.904609 38.624609 40.195156 42.17175 41.285156 44.71875 C 41.829156 46.13375 43.1615 49.789172 35.5625 52.951172 C 34.8865 53.232172 34.622469 53.743578 34.480469 54.017578 C 34.336469 54.295578 34.240266 54.470109 34.197266 54.537109 C 33.769266 55.195109 33.7655 56.043078 34.1875 56.705078 C 34.5585 57.286078 35.197047 57.630859 35.873047 57.630859 C 35.967047 57.630859 36.06125 57.624328 36.15625 57.611328 C 43.19625 56.601328 48.540813 52.358859 50.382812 50.255859 C 50.722813 49.867859 51.464484 49.585938 52.146484 49.585938 C 52.400484 49.585938 52.562141 49.626391 52.619141 49.650391 C 52.875141 49.761391 53.146062 49.814453 53.414062 49.814453 C 53.922063 49.814453 54.421734 49.621859 54.802734 49.255859 C 55.383734 48.696859 55.571297 47.843797 55.279297 47.091797 C 53.689297 42.998797 54.980563 39.64325 55.601562 38.03125 C 55.904562 37.24525 55.682875 36.354734 55.046875 35.802734 C 54.674875 35.479734 54.205375 35.3125 53.734375 35.3125 C 53.400375 35.3125 53.064766 35.396406 52.759766 35.566406 C 51.586766 36.222406 50.489047 36.554688 49.498047 36.554688 C 47.163047 36.554688 45.933812 34.657172 45.882812 34.576172 C 45.809812 34.461172 45.726766 34.356719 45.634766 34.261719 C 45.935766 33.991719 46.150141 33.632422 46.244141 33.232422 C 46.372141 32.689422 46.268031 32.11825 45.957031 31.65625 C 45.455031 30.91025 44.729047 29.651484 44.123047 27.896484 L 44.103516 27.837891 L 44.082031 27.779297 L 34.328125 2.2851562 C 34.028125 1.5011562 33.278891 1 32.462891 1 z M 32.460938 3 L 42.216797 28.492188 C 42.346797 28.866187 42.999781 30.838484 44.300781 32.771484 L 42.277344 33.916016 L 42.220703 33.900391 L 40.986328 34.625 C 37.875668 26.428708 33.45757 14.653128 32.447266 11.958984 C 31.218266 15.193984 21.830297 39.918625 20.779297 42.390625 C 19.655297 45.036625 20.466797 47.068359 20.466797 47.068359 C 20.466797 47.068359 18.760219 48.291828 17.074219 49.173828 C 14.620219 46.547828 13.107406 46.019531 11.816406 46.019531 C 11.333406 46.019531 10.882828 46.093203 10.423828 46.158203 C 12.591828 41.749203 11.066672 38.140297 10.263672 35.654297 C 11.848672 36.583297 13.250328 36.96875 14.486328 36.96875 C 20.040328 36.96875 22.232953 29.208297 22.626953 28.279297 L 32.460938 3.0351562 L 32.460938 3 z M 23.710938 3.5058594 C 23.321219 3.5134531 22.954531 3.7500156 22.800781 4.1347656 C 22.595781 4.6477656 22.844422 5.2305469 23.357422 5.4355469 L 25.214844 6.1777344 C 25.727844 6.3827344 26.310625 6.1321406 26.515625 5.6191406 C 26.720625 5.1061406 26.469031 4.5253125 25.957031 4.3203125 L 24.101562 3.578125 C 23.973312 3.526875 23.840844 3.5033281 23.710938 3.5058594 z M 21.853516 8.1484375 C 21.463797 8.1560312 21.099062 8.3925937 20.945312 8.7773438 C 20.740312 9.2903437 20.988953 9.8711719 21.501953 10.076172 L 23.359375 10.818359 C 23.872375 11.023359 24.453203 10.774719 24.658203 10.261719 C 24.863203 9.7497187 24.613563 9.1688906 24.101562 8.9628906 L 22.244141 8.2207031 C 22.115891 8.1694531 21.983422 8.1459062 21.853516 8.1484375 z M 19.998047 12.791016 C 19.608328 12.798609 19.243594 13.035172 19.089844 13.419922 C 18.884844 13.932922 19.133484 14.515703 19.646484 14.720703 L 21.503906 15.462891 C 22.016906 15.667891 22.597734 15.417297 22.802734 14.904297 C 23.007734 14.392297 22.758094 13.810469 22.246094 13.605469 L 20.388672 12.863281 C 20.260422 12.812031 20.127953 12.788484 19.998047 12.791016 z M 18.142578 17.433594 C 17.752859 17.441188 17.386172 17.67775 17.232422 18.0625 C 17.027422 18.5755 17.276062 19.158281 17.789062 19.363281 L 19.646484 20.105469 C 20.159484 20.310469 20.742266 20.061828 20.947266 19.548828 C 21.152266 19.036828 20.902625 18.453047 20.390625 18.248047 L 18.533203 17.505859 C 18.404953 17.454609 18.272484 17.431062 18.142578 17.433594 z M 32.435547 17.619141 C 33.86323 21.420073 35.835319 26.646753 37.634766 31.40625 L 27.955078 38.574219 L 28.21875 39.548828 L 38.351562 33.308594 C 38.608739 33.987619 38.878322 34.710161 39.121094 35.349609 C 39.159404 35.450859 39.216109 35.540434 39.269531 35.632812 L 22.210938 45.654297 C 22.153896 45.089437 22.169231 44.23111 22.619141 43.171875 C 23.450141 41.215875 29.205547 26.114141 32.435547 17.619141 z M 16.287109 22.078125 C 15.897391 22.085719 15.530703 22.320328 15.376953 22.705078 C 15.171953 23.218078 15.420594 23.800859 15.933594 24.005859 L 17.791016 24.748047 C 18.304016 24.953047 18.886797 24.704406 19.091797 24.191406 C 19.296797 23.678406 19.046203 23.095625 18.533203 22.890625 L 16.677734 22.148438 C 16.549484 22.097188 16.417016 22.075594 16.287109 22.078125 z M 14.431641 26.720703 C 14.041922 26.728297 13.675234 26.964859 13.521484 27.349609 C 13.316484 27.862609 13.565125 28.443438 14.078125 28.648438 L 15.935547 29.390625 C 16.448547 29.595625 17.031328 29.346984 17.236328 28.833984 C 17.440328 28.320984 17.191687 27.738203 16.679688 27.533203 L 14.822266 26.792969 C 14.694016 26.741719 14.561547 26.718172 14.431641 26.720703 z M 44.183594 35.628906 C 44.183594 35.628906 45.95 38.554688 49.5 38.554688 C 50.706 38.554688 52.118328 38.2165 53.736328 37.3125 C 52.933328 39.3965 51.607062 43.166406 53.414062 47.816406 C 53.061062 47.663406 52.622438 47.585938 52.148438 47.585938 C 51.008437 47.585938 49.672906 48.0315 48.878906 48.9375 C 47.754906 50.2205 42.858047 54.630813 35.873047 55.632812 C 36.046047 55.367812 36.321078 54.802828 36.330078 54.798828 C 40.806078 52.936828 45.329672 49.662797 43.138672 43.966797 C 42.054672 41.441797 40.730469 37.794922 40.730469 37.794922 L 44.183594 35.628906 z M 21.123047 49.177734 C 21.123047 49.177734 22.801844 52.592875 28.464844 54.921875 C 28.588844 55.230875 28.651953 55.342797 28.751953 55.591797 C 26.383953 55.351797 21.123187 53.708344 17.992188 50.902344 C 19.317187 50.180344 21.123047 49.177734 21.123047 49.177734 z M 10.267578 52.472656 C 9.8115781 52.642656 9.6205156 52.748797 9.2285156 52.841797 C 9.2285156 52.841797 17.57675 63.051 32.09375 63 C 46.88875 62.947 54.771484 52.943359 54.771484 52.943359 C 54.505484 52.785359 54.320047 52.690625 53.998047 52.515625 C 46.028047 58.697625 35.094875 63.018937 32.046875 57.585938 C 30.387875 62.071937 19.970578 59.775656 10.267578 52.472656 z"></path>
</svg>